{
  "accessors": [
    {
      "bufferView": 2,
      "componentType": 5126,
      "count": 121,
      "max": [
        0.5,
        0,
        0.5
      ],
      "min": [
        -0.5,
        0,
        -0.5
      ],
      "type": "VEC3"
    },
    {
      "bufferView": 2,
      "byteOffset": 1452,
      "componentType": 5126,
      "count": 121,
      "max": [
        0,
        1,
        0
      ],
      "min": [
        0,
        1,
        0
      ],
      "type": "VEC3"
    },
    {
      "bufferView": 1,
      "componentType": 5126,
      "count": 121,
      "max": [
        1,
        1
      ],
      "min": [
        0,
        0
      ],
      "type": "VEC2"
    },
    {
      "bufferView": 0,
      "componentType": 5125,
      "count": 600,
      "max": [
        120
      ],
      "min": [
        0
      ],
      "type": "SCALAR"
    },
    {
      "bufferView": 2,
      "byteOffset": 2904,
      "componentType": 5126,
      "count": 11576,
      "max": [
        3.1477887630462646,
        21.077810287475586,
        14.22028636932373
      ],
      "min": [
        -3.2692816257476807,
        0.56553298234939575,
        -12.978128433227539
      ],
      "type": "VEC3"
    },
    {
      "bufferView": 2,
      "byteOffset": 141816,
      "componentType": 5126,
      "count": 11576,
      "max": [
        0.99989426136016846,
        0.99961525201797485,
        0.99999988079071045
      ],
      "min": [
        -0.99996590614318848,
        -0.9999992847442627,
        -0.99946767091751099
      ],
      "type": "VEC3"
    },
    {
      "bufferView": 1,
      "byteOffset": 968,
      "componentType": 5126,
      "count": 11576,
      "max": [
        0.99927502870559692,
        0.99648493528366089
      ],
      "min": [
        0.00050000002374872565,
        0.0013119999784976244
      ],
      "type": "VEC2"
    },
    {
      "bufferView": 2,
      "byteOffset": 280728,
      "componentType": 5126,
      "count": 11576,
      "max": [
        0.056505680084228516,
        0.98723804950714111,
        0.59522724151611328
      ],
      "min": [
        -0.062212228775024414,
        -1.0795131921768188,
        -0.69761753082275391
      ],
      "type": "VEC3"
    },
    {
      "bufferView": 2,
      "byteOffset": 419640,
      "componentType": 5126,
      "count": 11576,
      "max": [
        0.5097726583480835,
        0.32449185848236084,
        1.2295066118240356
      ],
      "min": [
        -0.37395238876342773,
        -0.37776929140090942,
        -0.42053034901618958
      ],
      "type": "VEC3"
    },
    {
      "bufferView": 2,
      "byteOffset": 558552,
      "componentType": 5126,
      "count": 11576,
      "max": [
        0.14866268634796143,
        1.7731441259384155,
        1.552828311920166
      ],
      "min": [
        -0.16514694690704346,
        -1.5074639320373535,
        -1.4344539642333984
      ],
      "type": "VEC3"
    },
    {
      "bufferView": 2,
      "byteOffset": 697464,
      "componentType": 5126,
      "count": 11576,
      "max": [
        0.98722141981124878,
        0.50717699527740479,
        1.9376699924468994
      ],
      "min": [
        -0.85277092456817627,
        -0.70600050687789917,
        -0.52799433469772339
      ],
      "type": "VEC3"
    },
    {
      "bufferView": 2,
      "byteOffset": 836376,
      "componentType": 5126,
      "count": 11576,
      "max": [
        0.19402408599853516,
        2.0864710807800293,
        2.9147677421569824
      ],
      "min": [
        -0.34088659286499023,
        -1.6250514984130859,
        -2.9163870811462402
      ],
      "type": "VEC3"
    },
    {
      "bufferView": 2,
      "byteOffset": 975288,
      "componentType": 5126,
      "count": 11576,
      "max": [
        1.2338806390762329,
        0.63953793048858643,
        1.9710590839385986
      ],
      "min": [
        -1.1404192447662354,
        -0.97210580110549927,
        -0.61753302812576294
      ],
      "type": "VEC3"
    },
    {
      "bufferView": 2,
      "byteOffset": 1114200,
      "componentType": 5126,
      "count": 11576,
      "max": [
        0.21243798732757568,
        1.8979901075363159,
        4.4058022499084473
      ],
      "min": [
        -0.45955133438110352,
        -2.0306329727172852,
        -4.5381908416748047
      ],
      "type": "VEC3"
    },
    {
      "bufferView": 2,
      "byteOffset": 1253112,
      "componentType": 5126,
      "count": 11576,
      "max": [
        1.366275429725647,
        0.80488693714141846,
        1.9535930156707764
      ],
      "min": [
        -1.6087276935577393,
        -1.1309117078781128,
        -0.87768489122390747
      ],
      "type": "VEC3"
    },
    {
      "bufferView": 2,
      "byteOffset": 1392024,
      "componentType": 5126,
      "count": 11576,
      "max": [
        0.23575437068939209,
        2.0810384750366211,
        5.5347757339477539
      ],
      "min": [
        -0.3401409387588501,
        -2.2305850982666016,
        -6.0498056411743164
      ],
      "type": "VEC3"
    },
    {
      "bufferView": 2,
      "byteOffset": 1530936,
      "componentType": 5126,
      "count": 11576,
      "max": [
        1.4450247287750244,
        1.0589120388031006,
        1.9360082149505615
      ],
      "min": [
        -1.7184345722198486,
        -1.1851522922515869,
        -0.99420970678329468
      ],
      "type": "VEC3"
    },
    {
      "bufferView": 2,
      "byteOffset": 1669848,
      "componentType": 5126,
      "count": 11576,
      "max": [
        0.27283859252929688,
        2.1205544471740723,
        6.664003849029541
      ],
      "min": [
        -0.35841172933578491,
        -2.2896580696105957,
        -7.4809226989746094
      ],
      "type": "VEC3"
    },
    {
      "bufferView": 2,
      "byteOffset": 1808760,
      "componentType": 5126,
      "count": 11576,
      "max": [
        1.4788663387298584,
        1.3936595916748047,
        1.6440064907073975
      ],
      "min": [
        -1.8138759136199951,
        -1.2687222957611084,
        -1.0524859428405762
      ],
      "type": "VEC3"
    },
    {
      "bufferView": 2,
      "byteOffset": 1947672,
      "componentType": 5126,
      "count": 11576,
      "max": [
        0.29025006294250488,
        1.8215594291687012,
        9.0663871765136719
      ],
      "min": [
        -0.39077883958816528,
        -2.262056827545166,
        -8.5754156112670898
      ],
      "type": "VEC3"
    },
    {
      "bufferView": 2,
      "byteOffset": 2086584,
      "componentType": 5126,
      "count": 11576,
      "max": [
        1.4915412664413452,
        1.4256229400634766,
        1.6124410629272461
      ],
      "min": [
        -1.8648712635040283,
        -1.3140799999237061,
        -1.1123685836791992
      ],
      "type": "VEC3"
    },
    {
      "bufferView": 2,
      "byteOffset": 2225496,
      "componentType": 5126,
      "count": 11576,
      "max": [
        0.28608965873718262,
        1.8036575317382812,
        11.153475761413574
      ],
      "min": [
        -0.41214317083358765,
        -2.1814589500427246,
        -9.4525728225708008
      ],
      "type": "VEC3"
    },
    {
      "bufferView": 2,
      "byteOffset": 2364408,
      "componentType": 5126,
      "count": 11576,
      "max": [
        1.4966145753860474,
        1.2401667833328247,
        1.5833511352539062
      ],
      "min": [
        -1.8901290893554688,
        -1.3456301689147949,
        -1.180222749710083
      ],
      "type": "VEC3"
    },
    {
      "bufferView": 2,
      "byteOffset": 2503320,
      "componentType": 5126,
      "count": 11576,
      "max": [
        0.28848034143447876,
        2.023406982421875,
        12.634520530700684
      ],
      "min": [
        -0.42310065031051636,
        -2.1174440383911133,
        -11.528820037841797
      ],
      "type": "VEC3"
    },
    {
      "bufferView": 2,
      "byteOffset": 2642232,
      "componentType": 5126,
      "count": 11576,
      "max": [
        1.4984622001647949,
        1.480945348739624,
        1.5613731145858765
      ],
      "min": [
        -1.9051768779754639,
        -1.6115028858184814,
        -1.568068265914917
      ],
      "type": "VEC3"
    },
    {
      "bufferView": 2,
      "byteOffset": 2781144,
      "componentType": 5126,
      "count": 11576,
      "max": [
        0.2920653223991394,
        2.3384261131286621,
        13.508672714233398
      ],
      "min": [
        -0.42566555738449097,
        -2.3384330272674561,
        -13.508678436279297
      ],
      "type": "VEC3"
    },
    {
      "bufferView": 2,
      "byteOffset": 2920056,
      "componentType": 5126,
      "count": 11576,
      "max": [
        1.4983470439910889,
        1.7659444808959961,
        1.7633751630783081
      ],
      "min": [
        -1.9100264310836792,
        -1.765944242477417,
        -1.7633757591247559
      ],
      "type": "VEC3"
    },
    {
      "bufferView": 2,
      "byteOffset": 3058968,
      "componentType": 5126,
      "count": 11576,
      "max": [
        0.26255762577056885,
        3.1972081661224365,
        13.819973945617676
      ],
      "min": [
        -0.29474359750747681,
        -2.9489085674285889,
        -13.472105026245117
      ],
      "type": "VEC3"
    },
    {
      "bufferView": 2,
      "byteOffset": 3197880,
      "componentType": 5126,
      "count": 11576,
      "max": [
        1.489675760269165,
        1.8977705240249634,
        1.78609299659729
      ],
      "min": [
        -1.8705160617828369,
        -1.8730998039245605,
        -1.896062970161438
      ],
      "type": "VEC3"
    },
    {
      "bufferView": 2,
      "byteOffset": 3336792,
      "componentType": 5126,
      "count": 11576,
      "max": [
        0.24838757514953613,
        3.7116076946258545,
        13.077203750610352
      ],
      "min": [
        -0.28493905067443848,
        -2.9101300239562988,
        -13.019894599914551
      ],
      "type": "VEC3"
    },
    {
      "bufferView": 2,
      "byteOffset": 3475704,
      "componentType": 5126,
      "count": 11576,
      "max": [
        1.4836740493774414,
        1.9518594741821289,
        1.9033327102661133
      ],
      "min": [
        -1.7443819046020508,
        -1.8862290382385254,
        -1.9238272905349731
      ],
      "type": "VEC3"
    },
    {
      "bufferView": 2,
      "byteOffset": 3614616,
      "componentType": 5126,
      "count": 11576,
      "max": [
        0.24082756042480469,
        3.9364831447601318,
        11.507862091064453
      ],
      "min": [
        -0.37448859214782715,
        -2.8782687187194824,
        -12.227580070495605
      ],
      "type": "VEC3"
    },
    {
      "bufferView": 2,
      "byteOffset": 3753528,
      "componentType": 5126,
      "count": 11576,
      "max": [
        1.5028492212295532,
        1.9723432064056396,
        1.9510195255279541
      ],
      "min": [
        -1.3738043308258057,
        -1.9135761260986328,
        -1.9228378534317017
      ],
      "type": "VEC3"
    },
    {
      "bufferView": 2,
      "byteOffset": 3892440,
      "componentType": 5126,
      "count": 11576,
      "max": [
        0.22263133525848389,
        3.8310306072235107,
        9.8610897064208984
      ],
      "min": [
        -0.49501156806945801,
        -2.9298908710479736,
        -10.998443603515625
      ],
      "type": "VEC3"
    },
    {
      "bufferView": 2,
      "byteOffset": 4031352,
      "componentType": 5126,
      "count": 11576,
      "max": [
        1.5094125270843506,
        1.9534231424331665,
        1.9386537075042725
      ],
      "min": [
        -1.2136542797088623,
        -1.9647860527038574,
        -1.9240285158157349
      ],
      "type": "VEC3"
    },
    {
      "bufferView": 2,
      "byteOffset": 4170264,
      "componentType": 5126,
      "count": 11576,
      "max": [
        0.19134438037872314,
        3.3437352180480957,
        8.3350467681884766
      ],
      "min": [
        -0.389945387840271,
        -2.9298903942108154,
        -9.1465244293212891
      ],
      "type": "VEC3"
    },
    {
      "bufferView": 2,
      "byteOffset": 4309176,
      "componentType": 5126,
      "count": 11576,
      "max": [
        1.485674262046814,
        1.8797190189361572,
        1.8160437345504761
      ],
      "min": [
        -1.2044250965118408,
        -1.9620875120162964,
        -1.8743737936019897
      ],
      "type": "VEC3"
    },
    {
      "bufferView": 2,
      "byteOffset": 4448088,
      "componentType": 5126,
      "count": 11576,
      "max": [
        0.1567007303237915,
        2.692518949508667,
        6.8850884437561035
      ],
      "min": [
        -0.24703848361968994,
        -2.9233720302581787,
        -6.8446683883666992
      ],
      "type": "VEC3"
    },
    {
      "bufferView": 2,
      "byteOffset": 4587000,
      "componentType": 5126,
      "count": 11576,
      "max": [
        1.4605522155761719,
        1.8292557001113892,
        1.5892019271850586
      ],
      "min": [
        -0.63370704650878906,
        -1.9495553970336914,
        -1.6958924531936646
      ],
      "type": "VEC3"
    },
    {
      "bufferView": 2,
      "byteOffset": 4725912,
      "componentType": 5126,
      "count": 11576,
      "max": [
        0.11810731887817383,
        1.9433469772338867,
        5.5909266471862793
      ],
      "min": [
        -0.22179639339447021,
        -2.9178495407104492,
        -4.4422883987426758
      ],
      "type": "VEC3"
    },
    {
      "bufferView": 2,
      "byteOffset": 4864824,
      "componentType": 5126,
      "count": 11576,
      "max": [
        1.4014213085174561,
        1.726184606552124,
        1.5877788066864014
      ],
      "min": [
        -0.46363106369972229,
        -1.8916360139846802,
        -1.6079959869384766
      ],
      "type": "VEC3"
    },
    {
      "bufferView": 2,
      "byteOffset": 5003736,
      "componentType": 5126,
      "count": 11576,
      "max": [
        0.080390214920043945,
        1.271824836730957,
        4.4412450790405273
      ],
      "min": [
        -0.19868981838226318,
        -2.9235744476318359,
        -2.3551983833312988
      ],
      "type": "VEC3"
    },
    {
      "bufferView": 2,
      "byteOffset": 5142648,
      "componentType": 5126,
      "count": 11576,
      "max": [
        1.1408019065856934,
        1.6351444721221924,
        1.5873384475708008
      ],
      "min": [
        -0.3957182765007019,
        -1.7935352325439453,
        -1.511054515838623
      ],
      "type": "VEC3"
    },
    {
      "bufferView": 2,
      "byteOffset": 5281560,
      "componentType": 5126,
      "count": 11576,
      "max": [
        0.04352104663848877,
        0.56089764833450317,
        1.9798545837402344
      ],
      "min": [
        -0.084596037864685059,
        -1.9473648071289062,
        -0.77824211120605469
      ],
      "type": "VEC3"
    },
    {
      "bufferView": 2,
      "byteOffset": 5420472,
      "componentType": 5126,
      "count": 11576,
      "max": [
        0.3391096293926239,
        0.78695774078369141,
        0.78969544172286987
      ],
      "min": [
        -0.27444776892662048,
        -0.89084488153457642,
        -0.92197775840759277
      ],
      "type": "VEC3"
    },
    {
      "bufferView": 2,
      "byteOffset": 5559384,
      "componentType": 5126,
      "count": 11576,
      "max": [
        0,
        0,
        0
      ],
      "min": [
        0,
        0,
        0
      ],
      "type": "VEC3"
    },
    {
      "bufferView": 2,
      "byteOffset": 5698296,
      "componentType": 5126,
      "count": 11576,
      "max": [
        1.1920928955078125e-07,
        1.1920928955078125e-07,
        1.1920928955078125e-07
      ],
      "min": [
        -1.1920928955078125e-07,
        -1.1920928955078125e-07,
        -1.7881393432617188e-07
      ],
      "type": "VEC3"
    },
    {
      "bufferView": 0,
      "byteOffset": 2400,
      "componentType": 5125,
      "count": 61752,
      "max": [
        11575
      ],
      "min": [
        0
      ],
      "type": "SCALAR"
    },
    {
      "bufferView": 3,
      "componentType": 5126,
      "count": 21,
      "max": [
        0.875
      ],
      "min": [
        0.041666667908430099
      ],
      "type": "SCALAR"
    },
    {
      "bufferView": 3,
      "byteOffset": 84,
      "componentType": 5126,
      "count": 420,
      "max": [
        1
      ],
      "min": [
        0
      ],
      "type": "SCALAR"
    }
  ],
  "animations": [
    {
      "channels": [
        {
          "sampler": 0,
          "target": {
            "node": 11,
            "path": "weights"
          }
        }
      ],
      "name": "",
      "samplers": [
        {
          "input": 48,
          "interpolation": "LINEAR",
          "output": 49
        }
      ]
    }
  ],
  "asset": {
    "extras": {
      "author": "Amitesh Nandan (https://sketchfab.com/creatureanimator)",
      "license": "CC-BY-4.0 (http://creativecommons.org/licenses/by/4.0/)",
      "source": "https://sketchfab.com/3d-models/horse-trot-7e24b8c46d284b519d416035e6445903",
      "title": "Horse Trot"
    },
    "generator": "Sketchfab-9.47.0",
    "version": "2.0"
  },
  "bufferViews": [
    {
      "buffer": 0,
      "byteLength": 249408,
      "byteOffset": 0,
      "name": "floatBufferViews",
      "target": 34963
    },
    {
      "buffer": 0,
      "byteLength": 93576,
      "byteOffset": 249408,
      "byteStride": 8,
      "name": "floatBufferViews",
      "target": 34962
    },
    {
      "buffer": 0,
      "byteLength": 5837208,
      "byteOffset": 342984,
      "byteStride": 12,
      "name": "floatBufferViews",
      "target": 34962
    },
    {
      "buffer": 0,
      "byteLength": 1764,
      "byteOffset": 6180192,
      "name": "floatBufferViews"
    }
  ],
  "buffers": [
    {
      "byteLength": 6181956,
      "uri": "scene.bin"
    }
  ],
  "images": [
    {
      "uri": "textures/Horse1Shape_baseColor.jpeg"
    },
    {
      "uri": "textures/Horse1Shape_metallicRoughness.png"
    }
  ],
  "materials": [
    {
      "doubleSided": true,
      "emissiveFactor": [
        0,
        0,
        0
      ],
      "name": "Ground_PlaneShape1",
      "pbrMetallicRoughness": {
        "baseColorFactor": [
          0.80000000000000004,
          0.80000000000000004,
          0.80000000000000004,
          1
        ],
        "metallicFactor": 0,
        "roughnessFactor": 0.59999999999999998
      }
    },
    {
      "doubleSided": true,
      "emissiveFactor": [
        0,
        0,
        0
      ],
      "name": "Horse1Shape",
      "pbrMetallicRoughness": {
        "baseColorFactor": [
          1,
          1,
          1,
          1
        ],
        "baseColorTexture": {
          "index": 0,
          "texCoord": 0
        },
        "metallicFactor": 0,
        "metallicRoughnessTexture": {
          "index": 1,
          "texCoord": 0
        },
        "roughnessFactor": 1
      }
    }
  ],
  "meshes": [
    {
      "name": "Ground_PlaneShape1_2_0",
      "primitives": [
        {
          "attributes": {
            "NORMAL": 1,
            "POSITION": 0,
            "TEXCOORD_0": 2
          },
          "indices": 3,
          "material": 0,
          "mode": 4
        }
      ]
    },
    {
      "name": "Horse1Shape",
      "primitives": [
        {
          "attributes": {
            "NORMAL": 5,
            "POSITION": 4,
            "TEXCOORD_0": 6
          },
          "indices": 47,
          "material": 0,
          "mode": 4,
          "targets": [
            {
              "NORMAL": 8,
              "POSITION": 7
            },
            {
              "NORMAL": 10,
              "POSITION": 9
            },
            {
              "NORMAL": 12,
              "POSITION": 11
            },
            {
              "NORMAL": 14,
              "POSITION": 13
            },
            {
              "NORMAL": 16,
              "POSITION": 15
            },
            {
              "NORMAL": 18,
              "POSITION": 17
            },
            {
              "NORMAL": 20,
              "POSITION": 19
            },
            {
              "NORMAL": 22,
              "POSITION": 21
            },
            {
              "NORMAL": 24,
              "POSITION": 23
            },
            {
              "NORMAL": 26,
              "POSITION": 25
            },
            {
              "NORMAL": 28,
              "POSITION": 27
            },
            {
              "NORMAL": 30,
              "POSITION": 29
            },
            {
              "NORMAL": 32,
              "POSITION": 31
            },
            {
              "NORMAL": 34,
              "POSITION": 33
            },
            {
              "NORMAL": 36,
              "POSITION": 35
            },
            {
              "NORMAL": 38,
              "POSITION": 37
            },
            {
              "NORMAL": 40,
              "POSITION": 39
            },
            {
              "NORMAL": 42,
              "POSITION": 41
            },
            {
              "NORMAL": 44,
              "POSITION": 43
            },
            {
              "NORMAL": 46,
              "POSITION": 45
            }
          ]
        }
      ],
      "weights": [
        0,
        0,
        0,
        0,
        0,
        0,
        0,
        0,
        0,
        0,
        0,
        0,
        0,
        0,
        0,
        0,
        0,
        0,
        0,
        0
      ]
    }
  ],
  "nodes": [
    {
      "children": [
        1
      ],
      "name": "RootNode (gltf orientation matrix)",
      "rotation": [
        -0.70710678118654746,
        -0,
        -0,
        0.70710678118654757
      ]
    },
    {
      "children": [
        2
      ],
      "name": "RootNode (model correction matrix)"
    },
    {
      "children": [
        3
      ],
      "name": "b3c9bcb94f114ebeafddc7c3390b8d44.abc.cleaner.materialmerger.gles"
    },
    {
      "children": [
        4
      ],
      "matrix": [
        1,
        0,
        0,
        0,
        0,
        2.2204460492503131e-16,
        1,
        0,
        0,
        -1,
        2.2204460492503131e-16,
        0,
        0,
        0,
        0,
        1
      ],
      "name": ""
    },
    {
      "children": [
        5,
        9
      ],
      "name": ""
    },
    {
      "children": [
        6
      ],
      "matrix": [
        246.03579993770268,
        0,
        0,
        0,
        0,
        246.03579993770268,
        0,
        0,
        0,
        0,
        246.03579993770268,
        0,
        0,
        0,
        0,
        1
      ],
      "name": ""
    },
    {
      "children": [
        7
      ],
      "name": "TimeframeMainGroup"
    },
    {
      "children": [
        8
      ],
      "name": ""
    },
    {
      "mesh": 0,
      "name": "Ground_PlaneShape1_2_0"
    },
    {
      "children": [
        10
      ],
      "name": ""
    },
    {
      "children": [
        11
      ],
      "name": "MorphMainGroup"
    },
    {
      "mesh": 1,
      "name": "Horse1Shape"
    }
  ],
  "samplers": [
    {
      "magFilter": 9729,
      "minFilter": 9987,
      "wrapS": 10497,
      "wrapT": 10497
    }
  ],
  "scene": 0,
  "scenes": [
    {
      "name": "OSG_Scene",
      "nodes": [
        0
      ]
    }
  ],
  "textures": [
    {
      "sampler": 0,
      "source": 0
    },
    {
      "sampler": 0,
      "source": 1
    }
  ]
}

